# xmcd CD database file
#
# Track frame offsets:
#	150
#	15017
#	26972
#	39562
#	50177
#	61130
#	77952
#	87700
#	99240
#	108555
#
# Disc length: 1621 seconds
#
# Revision: 0
# Processed by: cddbd v1.5.1PL0 Copyright (c) Steve Scherf et al.
# Submitted via: CDex 1.51
#
DISCID=7d06530a
DTITLE=Jeannie Seely - Greatest Hits
DYEAR=1970
DGENRE=Country
TTITLE0=Don't Touch Me
TTITLE1=When It's Over
TTITLE2=I'll Love You More
TTITLE3=Everything I Had Going For Me
TTITLE4=Darling Are You Ever Coming Home
TTITLE5=It's Only Love
TTITLE6=It Just Takes Practice
TTITLE7=Your Way My Way
TTITLE8=You ChangedEverything About Me
TTITLE9=Don't You Get Ever Tired
EXTD=YEAR: 1970
EXTT0=
EXTT1=
EXTT2=
EXTT3=
EXTT4=
EXTT5=
EXTT6=
EXTT7=
EXTT8=
EXTT9=
PLAYORDER=
